# xmcd
#
# Track frame offsets:
#	150
#	29136
#	49470
#	71240
#	96209
#	117250
#	135699
#	158895
#	178983
#	197936
#
# Disc length: 2908 seconds
#
# Revision: 1
# Processed by: cddbd v1.5.2PL0 Copyright (c) Steve Scherf et al.
# Submitted via: EZCDAudioConverter 8.0.2.1
#
DISCID=a00b5a0a
DTITLE=Phi Nhung, Hồng Trúc, Lâm Gia Minh - Phiên Khúc Chiều Mưa
DYEAR=1999
DGENRE=country
TTITLE0=Lâm Gia Minh - Căn nhà dĩ vãng
TTITLE1=Hồng Trúc - Chuyện ba mùa mưa
TTITLE2=Phi Nhung - Lòng mẹ
TTITLE3=Lâm Gia Minh - Áo đẹp nàng dâu
TTITLE4=Hồng Trúc - Mùi hương dạ lý
TTITLE5=Lam Gia Minh - Phiên khúc chiều mưa
TTITLE6=Phi Nhung - Hai mùa mưa
TTITLE7=Lâm Gia Minh - Vùng trước mặt
TTITLE8=Hồng Trúc - Thư gửi người miền xa
TTITLE9=Lâm Gia Minh - Gửi người ở lại
EXTD=
EXTT0=
EXTT1=
EXTT2=
EXTT3=
EXTT4=
EXTT5=
EXTT6=
EXTT7=
EXTT8=
EXTT9=
PLAYORDER=
